<svg width="176" height="50" viewBox="0 0 176 50" fill="none" xmlns="http://www.w3.org/2000/svg" class="gw-cash-logo">
<path d="M118.233 42.5291C117.807 44.2941 116.681 45.6026 114.581 45.6026C113.425 45.6026 112.482 45.1764 111.873 44.4766C111.082 43.5635 110.808 42.4987 110.808 38.3603C110.808 34.222 111.082 33.1571 111.873 32.244C112.482 31.5443 113.425 31.1185 114.581 31.1185C116.681 31.1185 117.807 32.427 118.233 34.1916H122.523C121.762 29.6578 118.628 27.3452 114.581 27.3452C112.086 27.3452 110.26 28.1668 108.769 29.6275C106.609 31.7879 106.579 34.2219 106.579 38.3603C106.579 42.4987 106.609 44.9332 108.769 47.0936C110.26 48.5539 112.086 49.3755 114.581 49.3755C118.628 49.3755 121.762 47.0628 122.523 42.5291H118.233Z" fill="#d52b1e"></path>
<path d="M171.77 27.5278V36.3521H164.435V27.5278H160.205V49.193H164.435V40.1254H171.77V49.193H176V27.5278H171.77Z" fill="#d52b1e"></path>
<path d="M130.404 27.5278L122.493 49.193H126.935L128.243 45.359H135.911L137.19 49.193H141.632L133.721 27.5278H130.404ZM129.4 41.799L132.077 33.9484L134.725 41.799H129.4Z" fill="#d52b1e"></path>
<path d="M152.478 36.5346L149.891 36.1392C148.978 36.0174 148.339 35.713 147.913 35.3176C147.457 34.8914 147.274 34.3438 147.274 33.7659C147.274 32.2749 148.37 31.0271 150.621 31.0271C152.599 31.0271 153.908 31.3618 155.064 32.5181L157.742 29.8708C155.886 28.0754 153.725 27.3452 150.743 27.3452C146.057 27.3452 143.197 30.0533 143.197 33.9176C143.197 35.7434 143.714 37.1737 144.749 38.1778C145.723 39.1213 147.122 39.6992 148.948 39.9732L151.534 40.3686C152.569 40.5208 153.056 40.7033 153.482 41.0992C153.938 41.5553 154.151 42.164 154.151 42.8941C154.151 44.6288 152.812 45.6027 150.287 45.6027C148.309 45.6027 146.453 45.1461 145.084 43.7769L142.345 46.5153C144.475 48.6757 146.97 49.3755 150.256 49.3755C154.821 49.3755 158.29 47.0022 158.29 42.8031C158.29 40.8555 157.772 39.3341 156.616 38.2385C155.673 37.3259 154.456 36.8087 152.478 36.5346Z" fill="#d52b1e"></path>
<path d="M122.006 3.37174C120.455 1.78787 118.67 0.937729 116.082 0.937729C113.483 0.937729 111.703 1.78787 110.15 3.37174C107.915 5.65176 108.005 8.69407 108.005 11.9538C108.005 15.2035 107.915 18.2503 110.15 20.5308C111.703 22.1179 113.483 22.9649 116.082 22.9649C118.67 22.9649 120.455 22.1179 122.006 20.5308C124.237 18.2503 124.142 15.2035 124.142 11.9538C124.142 8.69407 124.237 5.6518 122.006 3.37174ZM118.159 17.2462C117.772 17.7626 117.033 18.2177 116.082 18.2177C115.125 18.2177 114.381 17.7626 113.989 17.2462C113.514 16.6044 113.218 15.9096 113.218 11.9538C113.218 7.99794 113.514 7.26733 113.989 6.62648C114.381 6.11376 115.124 5.68484 116.082 5.68484C117.033 5.68484 117.772 6.11376 118.159 6.62648C118.638 7.26737 118.933 7.9961 118.933 11.9538C118.933 15.9115 118.638 16.6044 118.159 17.2462Z" fill="#d52b1e"></path>
<path d="M99.7817 12.5584L96.3598 1.11801H92.6676L89.2534 12.5322L91.9597 20.0774L94.515 12.0996L97.9387 22.7837H102.196L108.002 1.11801H102.555L99.7817 12.5584Z" fill="#d52b1e"></path>
<path d="M141.506 8.08989C141.506 4.53033 138.976 1.11801 134.273 1.11801H125.874V22.785H131.086V14.7207H132.841L136.592 22.785H142.642L138.056 13.7478C139.726 12.8958 141.506 11.0398 141.506 8.08989ZM134.03 10.2766H131.086V5.89816H134.03C135.46 5.89816 136.296 6.9562 136.296 8.08985C136.296 9.2149 135.46 10.2766 134.03 10.2766Z" fill="#d52b1e"></path>
<path d="M149.577 1.11846H144.368V22.7837H158.482V18.0398H149.577V1.11846Z" fill="#d52b1e"></path>
<path d="M173.788 3.25038C172.331 1.75483 170.276 1.11935 168.068 1.11935H160.206V22.785H168.068C170.276 22.785 172.331 22.1478 173.788 20.6553C176.255 18.1294 175.992 15.3593 175.992 11.9538C175.992 8.54459 176.255 5.77317 173.788 3.25038ZM170.212 16.8223C169.737 17.551 169.025 18.0393 167.71 18.0393H165.418V5.86512H167.71C169.025 5.86512 169.737 6.35474 170.212 7.08029C170.631 7.68994 170.778 8.30092 170.778 11.9538C170.778 15.6329 170.63 16.2126 170.212 16.8223Z" fill="#d52b1e"></path>
<path d="M69.5317 3.25066C68.0755 1.75511 66.0197 1.11919 63.8181 1.11919H55.9535V22.7849H63.8181C66.0197 22.7849 68.0755 22.1476 69.5317 20.6552C72.0051 18.1293 71.7347 15.3592 71.7347 11.9537C71.7347 8.54496 72.0051 5.77301 69.5317 3.25066ZM65.9622 16.8221C65.4857 17.5513 64.7683 18.0391 63.4575 18.0391H61.1657V5.865H63.4575C64.7683 5.865 65.4857 6.35462 65.9622 7.08062C66.3752 7.68982 66.5256 8.30081 66.5256 11.9537C66.5256 15.6328 66.3752 16.2129 65.9622 16.8221Z" fill="#d52b1e"></path>
<path d="M83.4809 1.11785H79.4607L71.7438 22.7835H77.1902L78.2355 19.5596H82.6321L83.7051 16.5766L85.9624 22.7835H91.1928L83.4809 1.11785ZM79.6935 15.1173L81.6017 9.33481L83.3858 15.1173H79.6935Z" fill="#d52b1e"></path>
<path d="M16.347 10.3077H8.04033V14.7486H11.1673V15.0535C11.1673 15.8773 10.9594 16.7601 10.3648 17.3679C9.88467 17.8856 9.14094 18.218 8.04033 18.218C7.08513 18.218 6.37265 17.8217 5.98635 17.3058C5.50805 16.6718 5.20959 15.9099 5.20959 11.9541C5.20959 7.99459 5.50805 7.26582 5.98635 6.62676C6.37269 6.1127 7.08513 5.68512 8.04033 5.68512C9.82576 5.68512 10.6614 6.47773 11.0772 8.11914H16.3175C15.8098 4.55644 13.4917 0.938053 8.04033 0.938053C5.47994 0.938053 3.69269 1.78819 2.14507 3.37207C-0.0878512 5.65257 0.000474729 8.6944 0.000474729 11.9541C0.000474729 15.2043 -0.0878512 18.2511 2.14507 20.5311C3.69273 22.1168 5.56827 22.9651 8.04033 22.9651C10.3648 22.9651 12.3879 22.4479 14.2047 20.5311C15.8098 18.8571 16.347 16.8226 16.347 13.3201L16.347 10.3077Z" fill="#d52b1e"></path>
<path d="M24.0585 1.11785L16.3465 22.7835H21.7947L22.8397 19.5596H27.2366L28.3047 16.5766L30.562 22.7835H35.7924L28.0786 1.11785H24.0585ZM24.2976 15.1173L26.2044 9.33481L27.9917 15.1173H24.2976Z" fill="#d52b1e"></path>
<path d="M53.1181 8.08973C53.1181 4.53017 50.5872 1.11785 45.8813 1.11785H37.4859V22.7853H42.6968V14.721H44.4509L48.2057 22.7853H54.2486L49.6636 13.7477C51.3327 12.8962 53.1181 11.0401 53.1181 8.08973ZM45.6435 10.2769H42.6968V5.89804H45.6435C47.0752 5.89804 47.904 6.95608 47.904 8.08973C47.904 9.21523 47.0752 10.2769 45.6435 10.2769Z" fill="#d52b1e"></path>
</svg>