<svg width="192" height="38" viewBox="0 0 192 38" fill="none" xmlns="http://www.w3.org/2000/svg">
<path d="M175.751 36.7417H183.853V12.0882H175.751V36.7417ZM132.486 36.7417H140.099V23.2625L147.048 36.7417H150.575L157.524 23.2625V36.7417H165.136V12.0882H155.988L148.829 25.7773L141.635 12.0887H132.486V36.7417ZM104.934 26.9641L108.287 17.7102H108.357L111.744 26.9641H104.934ZM115.306 36.7417H123.861L114.153 12.0882H102.525L92.8176 36.7417H101.408L102.874 32.656H113.804L115.306 36.7417ZM74.0303 37.5448C79.6874 37.5448 83.9476 35.8338 85.4492 32.4815C85.9131 31.4507 86.1399 30.329 86.1127 29.1989C86.1395 28.155 85.9368 27.118 85.5189 26.161C84.3316 23.4372 81.2937 22.3198 78.116 21.4817C74.7636 20.6087 71.8653 20.2595 71.2717 18.8976C71.2001 18.6958 71.1647 18.483 71.1669 18.269C71.1646 18.0663 71.2001 17.865 71.2717 17.6754C71.5657 17.3016 71.9525 17.0113 72.3937 16.8336C72.8348 16.656 73.3148 16.597 73.7858 16.6626C75.3921 16.6626 76.3001 17.1516 76.6843 18.0246C76.8581 18.4215 76.953 18.8484 76.9636 19.2816H85.3793C85.3677 18.2605 85.1541 17.2517 84.7507 16.3134C83.2491 13.0309 79.2683 11.2849 74.0303 11.2849C68.6177 11.2849 64.6368 13.1358 63.2402 16.2437C62.8359 17.1557 62.6334 18.1444 62.6465 19.1419C62.6325 20.1361 62.8227 21.1226 63.2053 22.0404C64.2529 24.2404 66.2782 25.4974 69.4908 26.3703C72.7034 27.2432 76.3352 27.6623 77.0685 29.2686C77.1834 29.5085 77.2431 29.771 77.2432 30.037C77.2522 30.2927 77.1918 30.546 77.0685 30.7702C76.7542 31.5035 75.7415 31.9576 74.205 31.9576C72.5638 31.9576 71.5163 31.4338 71.0623 30.456C70.9005 30.0811 70.8173 29.677 70.8179 29.2686H62.1578C62.174 30.3458 62.387 31.411 62.7864 32.4115C64.288 35.7289 68.2339 37.5448 74.0306 37.5448L74.0303 37.5448ZM33.4888 36.7415H53.1489V30.5957H41.5898V27.2782H53.0436V21.4472H41.5898V18.2345H53.1484V12.0887H33.4883L33.4888 36.7415ZM11.8734 37.5448C17.5304 37.5448 21.7907 35.8337 23.2922 32.4814C23.7562 31.4506 23.9829 30.3289 23.9556 29.1989C23.9825 28.155 23.7799 27.1179 23.3621 26.1609C22.1748 23.4371 19.1367 22.3196 15.9589 21.4815C12.6066 20.6085 9.70832 20.2593 9.11462 18.8974C9.04317 18.6956 9.00776 18.4829 9.00995 18.2688C9.00769 18.0662 9.04317 17.8649 9.11462 17.6753C9.40867 17.3015 9.7956 17.0112 10.2368 16.8335C10.6779 16.6558 11.1579 16.5969 11.629 16.6626C13.2353 16.6626 14.1431 17.1514 14.5272 18.0244C14.7011 18.4213 14.7961 18.8483 14.8066 19.2815H23.2224C23.2108 18.2603 22.9972 17.2516 22.5938 16.3134C21.0923 13.0309 17.1113 11.2849 11.8737 11.2849C6.46112 11.2849 2.48024 13.1357 1.08374 16.2436C0.679493 17.1556 0.477043 18.1443 0.490173 19.1419C0.476147 20.1361 0.666258 21.1225 1.04883 22.0403C2.09643 24.2403 4.12187 25.4974 7.33447 26.3703C10.5471 27.2432 14.1787 27.6622 14.912 29.2685C15.027 29.5083 15.0867 29.7709 15.0867 30.0368C15.0957 30.2925 15.0354 30.546 14.912 30.7702C14.5978 31.5035 13.5851 31.9574 12.0486 31.9574C10.4074 31.9574 9.35982 31.4336 8.90582 30.4558C8.74405 30.0809 8.66088 29.6768 8.66144 29.2685H0.00146484C0.0174954 30.3457 0.23054 31.4109 0.630066 32.4113C2.13157 35.7287 6.07757 37.5446 11.8743 37.5446" fill="#25252D"></path>
<path d="M183.863 0.45517H175.727V8.59177H183.863V0.45517Z" fill="#5CE6DB"></path>
<path d="M192 0.45517H183.863V8.59177H192V0.45517Z" fill="#25252D"></path>
</svg>